HIERARCHY
ROOT Hips
{
	OFFSET 55.062599 -34.402916 94.440895
	CHANNELS 6 Xposition Yposition Zposition Xrotation Yrotation Zrotation
	JOINT spine
	{
		OFFSET 0.000000 -0.448574 7.800591
		CHANNELS 3 Xrotation Yrotation Zrotation
		JOINT spine1
		{
			OFFSET 0.000000 -0.000004 10.136398
			CHANNELS 3 Xrotation Yrotation Zrotation
			JOINT spine2
			{
				OFFSET 0.000000 0.000000 9.712509
				CHANNELS 3 Xrotation Yrotation Zrotation
				JOINT Neck
				{
					OFFSET 0.000000 -1.188873 24.936111
					CHANNELS 3 Xrotation Yrotation Zrotation
					JOINT Head
					{
						OFFSET 0.000000 -0.000004 7.533844
						CHANNELS 3 Xrotation Yrotation Zrotation
						End Site
						{
							OFFSET 0.000000 6.014017 18.236099
						}
					}
				}
				JOINT RightShoulder
				{
					OFFSET -4.089649 0.569454 10.488800
					CHANNELS 3 Xrotation Yrotation Zrotation
					JOINT RightArm
					{
						OFFSET 0.000000 0.000000 13.757004
						CHANNELS 3 Xrotation Yrotation Zrotation
						JOINT RightArmRoll
						{
							OFFSET 0.000000 -0.000004 6.944778
							CHANNELS 3 Xrotation Yrotation Zrotation
							JOINT RightForeArm
							{
								OFFSET 0.000000 0.000000 20.227692
								CHANNELS 3 Xrotation Yrotation Zrotation
								JOINT RightForeArmRoll
								{
									OFFSET 0.000000 -0.000004 7.793121
									CHANNELS 3 Xrotation Yrotation Zrotation
									JOINT RightHand
									{
										OFFSET 0.000000 0.000000 15.639099
										CHANNELS 3 Xrotation Yrotation Zrotation
										End Site
										{
											OFFSET 0.000000 0.000000 0.100006
										}
									}
								}
							}
						}
					}
				}
				JOINT LeftShoulder
				{
					OFFSET 4.089649 0.569454 10.488800
					CHANNELS 3 Xrotation Yrotation Zrotation
					JOINT LeftArm
					{
						OFFSET 0.000000 0.000000 13.757004
						CHANNELS 3 Xrotation Yrotation Zrotation
						JOINT LeftArmRoll
						{
							OFFSET 0.000000 -0.000004 6.944778
							CHANNELS 3 Xrotation Yrotation Zrotation
							JOINT LeftForeArm
							{
								OFFSET 0.000000 0.000000 20.227692
								CHANNELS 3 Xrotation Yrotation Zrotation
								JOINT LeftForeArmRoll
								{
									OFFSET 0.000000 -0.000004 7.793121
									CHANNELS 3 Xrotation Yrotation Zrotation
									JOINT LeftHand
									{
										OFFSET 0.000000 0.000000 15.639099
										CHANNELS 3 Xrotation Yrotation Zrotation
										End Site
										{
											OFFSET 0.000000 0.000000 0.100006
										}
									}
								}
							}
						}
					}
				}
			}
		}
	}
	JOINT RightUpLeg
	{
		OFFSET -6.914162 1.063580 -1.267883
		CHANNELS 3 Xrotation Yrotation Zrotation
		JOINT RightUpLegRoll
		{
			OFFSET 0.000000 -0.000004 18.337799
			CHANNELS 3 Xrotation Yrotation Zrotation
			JOINT RightLeg
			{
				OFFSET 0.000000 0.000004 -22.708496
				CHANNELS 3 Xrotation Yrotation Zrotation
				JOINT RightLegRoll
				{
					OFFSET 0.000000 -0.000004 22.782799
					CHANNELS 3 Xrotation Yrotation Zrotation
					JOINT RightFoot
					{
						OFFSET 0.000000 -0.000004 18.962906
						CHANNELS 3 Xrotation Yrotation Zrotation
						JOINT RightToeBase
						{
							OFFSET 0.000000 0.000000 15.852005
							CHANNELS 3 Xrotation Yrotation Zrotation
							End Site
							{
								OFFSET 0.006718 0.884888 7.677002
							}
						}
					}
				}
			}
		}
	}
	JOINT LeftUpLeg
	{
		OFFSET 6.914162 1.063580 -1.267883
		CHANNELS 3 Xrotation Yrotation Zrotation
		JOINT LeftUpLegRoll
		{
			OFFSET 0.000000 -0.000004 18.337898
			CHANNELS 3 Xrotation Yrotation Zrotation
			JOINT LeftLeg
			{
				OFFSET 0.000000 -0.000004 22.708405
				CHANNELS 3 Xrotation Yrotation Zrotation
				JOINT LeftLegRoll
				{
					OFFSET 0.000000 -0.000004 22.993393
					CHANNELS 3 Xrotation Yrotation Zrotation
					JOINT LeftFoot
					{
						OFFSET 0.000000 -0.000004 18.752197
						CHANNELS 3 Xrotation Yrotation Zrotation
						JOINT LeftToeBase
						{
							OFFSET 0.000000 0.000000 15.852005
							CHANNELS 3 Xrotation Yrotation Zrotation
							End Site
							{
								OFFSET -0.030113 0.884888 7.677017
							}
						}
					}
				}
			}
		}
	}
}
MOTION
Frames: 5
Frame Time: 0.041667
50.476307 -11.424713 65.397583 24.401126 5.228964 12.624152 3.470896 -0.433026 -0.293507 10.942820 -0.884979 -0.555446 12.588053 -0.891575 -0.544805 -43.696443 26.060746 0.164039 2.181235 -19.987061 -12.189618 165.922698 -144.509140 164.244316 128.479547 -30.396377 73.201630 0.000001 -0.000000 0.000001 52.409507 -21.137380 12.788639 0.000006 0.000005 -3.000001 -5.000081 -7.998676 -0.000038 -16.493513 53.047354 19.396940 -77.929098 131.638222 113.202039 0.000009 -0.000004 -0.000004 49.159942 17.017536 -5.313451 0.000015 -0.000005 3.000004 -4.999689 7.999715 0.000001 -92.529918 -174.514584 0.618688 179.999964 0.000006 -0.789005 90.108008 0.174130 -1.528169 -0.000009 0.000005 1.937650 86.538196 6.132402 3.567995 25.456860 -7.355622 -0.000015 -92.420423 171.643706 -7.167459 -0.000019 -0.000006 -1.244110 -87.989946 2.850447 3.979487 -0.000004 0.000003 -2.404231 85.257966 -7.973839 4.319104 25.501601 7.355611 -0.003336 
50.499912 -11.508415 65.553589 24.359211 5.221635 12.637649 3.458755 -0.428276 -0.288478 10.918588 -0.875092 -0.545844 12.563814 -0.881571 -0.535321 -43.676905 26.053818 0.144135 2.178029 -20.020777 -12.196417 165.940102 -144.353234 164.261255 128.496472 -30.272887 73.529452 0.000001 0.000000 -0.000000 51.901057 -21.430482 12.830016 0.000009 0.000005 -3.000005 -5.000077 -7.998677 -0.000038 -16.443006 53.154356 19.336802 -77.630093 131.813635 112.548315 0.000011 -0.000006 -0.000003 48.522091 17.120778 -5.298468 0.000015 -0.000005 2.999999 -4.999687 7.999714 -0.000005 -92.232006 -174.515746 0.606480 179.999964 0.000005 -0.787994 90.337120 0.148807 -1.549440 -0.000009 0.000005 1.932890 86.563625 6.131749 3.569608 25.456861 -7.355623 -0.000015 -92.128856 171.641274 -7.141020 -0.000020 -0.000005 -1.239569 -87.753608 2.912017 4.021198 -0.000003 0.000002 -2.390732 85.260644 -7.972982 4.317225 25.501712 7.355618 -0.003332 
50.528507 -11.584909 65.706696 24.316076 5.213937 12.652026 3.446364 -0.423534 -0.283603 10.893852 -0.865229 -0.536548 12.538975 -0.871599 -0.526145 -43.649905 26.051566 0.124422 2.168371 -20.063773 -12.203394 165.956699 -144.195812 164.276882 128.510883 -30.146529 73.857561 -0.000000 -0.000000 0.000001 51.379774 -21.730913 12.868605 0.000007 0.000007 -3.000002 -5.000076 -7.998681 -0.000038 -16.388942 53.263475 19.272344 -77.324906 131.995004 111.873738 0.000005 -0.000003 -0.000005 47.863473 17.222727 -5.278704 0.000017 -0.000004 2.999999 -4.999688 7.999715 -0.000002 -91.931430 -174.515609 0.592883 179.999964 0.000006 -0.786997 90.568868 0.123404 -1.570611 -0.000009 0.000005 1.927941 86.587633 6.130910 3.572092 25.456853 -7.355621 -0.000015 -91.834332 171.639170 -7.115613 -0.000021 -0.000004 -1.235049 -87.514217 2.974994 4.063345 -0.000003 0.000002 -2.377009 85.261900 -7.972564 4.316536 25.501807 7.355622 -0.003330 
50.374905 -11.687107 65.898087 24.271533 5.205986 12.667156 3.433779 -0.418831 -0.278856 10.868722 -0.855459 -0.527501 12.513941 -0.861722 -0.517214 -43.616878 26.052426 0.104685 2.153559 -20.113232 -12.210432 165.972231 -144.036791 164.290980 128.523355 -30.016786 74.186714 0.000000 -0.000000 -0.000000 50.845957 -22.037558 12.903804 0.000009 0.000007 -3.000000 -5.000073 -7.998677 -0.000038 -16.331571 53.374619 19.203912 -77.017609 132.180389 111.185310 0.000005 -0.000004 -0.000001 47.188510 17.323262 -5.254477 0.000016 -0.000002 3.000003 -4.999691 7.999715 -0.000004 -91.628210 -174.514147 0.578688 179.999964 0.000006 -0.786000 90.803376 0.097796 -1.591683 -0.000010 0.000004 1.922801 86.610111 6.129950 3.575463 25.456854 -7.355621 -0.000015 -91.536986 171.637176 -7.089021 -0.000019 -0.000007 -1.230550 -87.271977 3.039047 4.105622 -0.000001 0.000002 -2.363100 85.261784 -7.972379 4.316731 25.502012 7.355608 -0.003334 
50.398403 -11.774315 66.039993 24.225672 5.197852 12.682993 3.421079 -0.414207 -0.274209 10.843394 -0.845852 -0.518647 12.488508 -0.852008 -0.508476 -43.579646 26.054588 0.084815 2.134887 -20.166224 -12.217510 165.986683 -143.876296 164.303561 128.532986 -29.884905 74.514905 -0.000000 -0.000000 -0.000000 50.299969 -22.349260 12.934845 0.000009 0.000005 -3.000001 -5.000075 -7.998674 -0.000039 -16.271245 53.488092 19.131947 -76.711207 132.368369 110.488944 0.000009 -0.000003 -0.000007 46.501939 17.421955 -5.226132 0.000017 -0.000006 3.000005 -4.999686 7.999716 -0.000001 -91.322423 -174.511210 0.564306 179.999964 0.000006 -0.785003 91.040630 0.071775 -1.613657 -0.000009 0.000004 1.917470 86.630964 6.128955 3.579215 25.456858 -7.355622 -0.000015 -91.236806 171.635605 -7.063863 -0.000021 -0.000005 -1.226068 -87.026842 3.104153 4.148121 -0.000002 0.000001 -2.348990 85.260206 -7.972483 4.317616 25.502106 7.355607 -0.003330 
